<?xml version="1.0" standalone="no"?><!DOCTYPE svg PUBLIC "-//W3C//DTD SVG 1.1//EN" "http://www.w3.org/Graphics/SVG/1.1/DTD/svg11.dtd"><svg t="1518402350448" class="icon" style="" viewBox="0 0 1024 1024" version="1.1" xmlns="http://www.w3.org/2000/svg" p-id="5198" xmlns:xlink="http://www.w3.org/1999/xlink" width="32" height="32"><defs><style type="text/css"></style></defs><path d="M545.7 254.4H160.2l3-22.6c6-45.7 28.4-87.7 63.1-118.3 35-30.9 80-47.9 126.7-47.9s91.7 17 126.7 47.9c34.7 30.6 57.1 72.6 63.1 118.3l2.9 22.6z m-338.1-40h290.7C479.8 151 420.9 105.5 353 105.5S226.2 151 207.6 214.4z" fill="#515151" p-id="5199"></path><path d="M641 960.2H136.7c-39.6 0-71.8-32.1-71.8-71.8v-674H641v745.8z" fill="#4D96FF" p-id="5200"></path><path d="M834.3 488.3H448.8l3-22.6c6-45.7 28.4-87.7 63.1-118.3 35-30.9 80-47.9 126.7-47.9s91.7 17 126.7 47.9C803 378 825.4 420 831.4 465.7l2.9 22.6z m-338.1-40h290.7c-18.6-63.4-77.5-108.8-145.3-108.8-67.9 0-126.8 45.4-145.4 108.8z" fill="#515151" p-id="5201"></path><path d="M890.8 959.6H392.4c-39.4 0-71.4-32-71.4-71.4v-440h641.3v439.9c-0.1 39.5-32 71.5-71.5 71.5z" fill="#03cb28" p-id="5202"></path></svg>