<?xml version="1.0" standalone="no"?><!DOCTYPE svg PUBLIC "-//W3C//DTD SVG 1.1//EN" "http://www.w3.org/Graphics/SVG/1.1/DTD/svg11.dtd"><svg t="1518402444461" class="icon" style="" viewBox="0 0 1024 1024" version="1.1" xmlns="http://www.w3.org/2000/svg" p-id="6898" xmlns:xlink="http://www.w3.org/1999/xlink" width="32" height="32"><defs><style type="text/css"></style></defs><path d="M249.856 742.4m-98.816 0a98.816 98.816 0 1 0 197.632 0 98.816 98.816 0 1 0-197.632 0Z" fill="#C7F045" p-id="6899"></path><path d="M820.224 742.4m-98.816 0a98.816 98.816 0 1 0 197.632 0 98.816 98.816 0 1 0-197.632 0Z" fill="#C7F045" p-id="6900"></path><path d="M16.384 185.856v542.72H153.6c6.144-49.152 47.616-87.04 98.304-87.04 50.688 0 92.16 37.888 98.304 87.04h234.496v-542.72H16.384zM632.32 264.704v464.384h88.064c6.144-49.152 47.616-87.04 98.304-87.04 50.688 0 92.16 37.888 98.304 87.04h89.6V481.28l-146.944-216.576h-227.328z" fill="#EFF0A9" p-id="6901"></path><path d="M929.28 464.384h-230.4V318.976h136.704z" fill="#C7F045" p-id="6902"></path><path d="M564.736 169.472H35.328C15.872 169.472 0 185.344 0 204.8v505.344c0 19.456 15.872 35.328 35.328 35.328h103.424c1.024 60.416 50.176 109.056 111.104 109.056 60.416 0 110.08-48.64 111.104-109.056h204.288c19.456 0 35.328-15.872 35.328-35.328V204.8c-1.024-19.456-16.384-35.328-35.84-35.328zM249.856 828.416c-46.08 0-83.968-37.376-84.992-82.944h2.048l2.048-13.312c5.632-40.448 40.448-70.656 81.408-70.656 40.448 0 75.776 30.72 81.408 70.656l2.048 13.312h2.048c-2.048 46.08-39.936 82.944-86.016 82.944z m318.976-118.272c0 2.048-2.048 4.096-4.096 4.096H358.912C345.6 665.6 301.056 629.76 249.344 629.76c-51.712 0-96.256 35.328-109.568 84.48H35.328c-2.048 0-4.096-2.048-4.096-4.096V204.8c0-2.048 2.048-4.096 4.096-4.096h529.408c2.048 0 4.096 2.048 4.096 4.096v505.344zM823.808 299.52h-114.688c-15.36 0-27.648 12.288-27.648 27.648V455.68c0 15.36 12.288 27.648 27.648 27.648h204.288c10.24 0 19.456-5.632 24.576-14.848 4.608-9.216 4.096-19.968-2.048-28.16l-89.6-129.024c-5.12-7.68-13.312-11.776-22.528-11.776z m-110.592 152.576V330.752h109.056l84.48 121.856h-193.536z" fill="#2EA7E0" p-id="6903"></path><path d="M1017.856 462.336l-141.312-200.704c-6.144-8.704-16.384-13.824-26.624-13.824h-203.264c-17.92 0-32.768 14.848-32.768 32.768v432.128c0 17.92 14.848 32.768 32.768 32.768h60.928c1.024 60.416 50.176 109.056 111.104 109.056 60.416 0 110.08-48.64 111.104-109.056h61.952c17.92 0 32.768-14.848 32.768-32.768V481.28c-0.512-6.656-2.56-13.312-6.656-18.944z m-199.68 366.08c-46.08 0-83.968-37.376-84.992-82.944h2.048l2.048-13.312c5.632-40.448 40.448-70.656 81.408-70.656 40.448 0 75.776 30.72 81.408 70.656l2.048 13.312h2.048c-1.536 46.08-39.424 82.944-86.016 82.944z m174.592-115.712c0 1.024-0.512 1.536-1.536 1.536h-63.488c-13.312-48.64-57.856-84.48-109.568-84.48-51.712 0-96.256 35.328-109.568 84.48h-62.464c-1.024 0-1.536-0.512-1.536-1.536V280.576c0-1.024 0.512-1.536 1.536-1.536H849.92c0.512 0 1.024 0.512 1.536 0.512L992.768 481.28v231.424zM172.544 300.032c-9.728 0-18.432 1.536-25.6 4.608-7.68 3.072-13.824 7.68-18.944 13.824-5.12 6.144-8.704 12.288-10.752 18.432-2.048 6.144-3.584 14.848-5.12 25.6l-1.024 7.168H153.6l2.56-18.432c1.024-8.704 3.072-14.336 5.12-16.896 2.048-3.072 5.12-4.096 8.704-4.096s6.144 1.536 7.68 4.096c1.536 2.56 1.536 6.656 1.024 11.776-1.024 6.656-5.12 16.384-12.8 28.672-7.68 12.288-30.72 44.032-69.12 95.232l-4.096 26.624h105.984l4.608-32.768H150.528c32.768-39.936 52.736-66.048 59.904-78.336 7.168-12.288 11.776-24.064 13.312-34.816 2.048-14.336-1.024-26.624-9.728-35.84s-22.528-14.848-41.472-14.848zM288.768 303.616L229.376 429.568l-4.608 32.768h57.344l-4.608 34.304h48.128l4.608-33.792h13.824l4.608-32.768h-13.824l17.408-125.952H288.768zM286.72 429.568h-21.504l32.768-81.92-11.264 81.92zM483.84 342.016c-5.12-4.096-12.288-6.656-20.48-6.656-5.632 0-10.752 1.024-15.872 3.072-5.12 2.048-9.728 4.608-14.848 8.704l6.144-43.52h-48.128L364.032 496.64h48.128l15.872-112.64c1.024-8.192 2.56-13.312 3.584-15.872 1.536-2.56 3.584-4.096 6.656-4.096 3.072 0 5.12 1.536 5.632 4.096 0.512 2.56 0 8.704-1.024 17.92l-15.36 111.104h48.128l15.36-109.056c2.048-14.848 3.072-25.088 2.56-30.72-1.536-6.144-4.096-10.752-9.728-15.36z" fill="#2EA7E0" p-id="6904"></path></svg>