<?xml version="1.0" standalone="no"?><!DOCTYPE svg PUBLIC "-//W3C//DTD SVG 1.1//EN" "http://www.w3.org/Graphics/SVG/1.1/DTD/svg11.dtd"><svg t="1518402644713" class="icon" style="" viewBox="0 0 1024 1024" version="1.1" xmlns="http://www.w3.org/2000/svg" p-id="14465" xmlns:xlink="http://www.w3.org/1999/xlink" width="32" height="32"><defs><style type="text/css"></style></defs><path d="M223.8 447.9L429 573.1c47.3 28.9 124.8 28.9 172.1 0L806.3 448c47.3-28.9 47.3-76.1 0-105L601.1 217.8c-47.3-28.9-124.8-28.9-172.1 0L223.8 343c-47.3 28.8-47.3 76.1 0 104.9z" fill="#1B8AE0" p-id="14466"></path><path d="M806.2 500.6L601.1 625.7c-47.3 28.9-124.8 28.9-172.1 0L223.8 500.6c-9.6-5.9-17.2-12.5-22.9-19.6-22.4 27.7-14.9 62.4 22.9 85.4L429 691.6c47.3 28.9 124.8 28.9 172.1 0l205.2-125.2c37.7-23 45.3-57.7 22.9-85.4-5.8 7.1-13.4 13.7-23 19.6z" fill="#1B8AE0" p-id="14467"></path><path d="M806.2 619.1L601.1 744.2c-47.3 28.9-124.8 28.9-172.1 0L223.8 619.1c-9.6-5.9-17.2-12.5-22.9-19.6-22.4 27.7-14.9 62.4 22.9 85.4L429 810.1c47.3 28.9 124.8 28.9 172.1 0L806.3 685c37.7-23 45.3-57.7 22.9-85.4-5.8 7-13.4 13.6-23 19.5z" fill="#1B8AE0" p-id="14468"></path></svg>