<?xml version="1.0" standalone="no"?><!DOCTYPE svg PUBLIC "-//W3C//DTD SVG 1.1//EN" "http://www.w3.org/Graphics/SVG/1.1/DTD/svg11.dtd"><svg t="1518402527354" class="icon" style="" viewBox="0 0 1024 1024" version="1.1" xmlns="http://www.w3.org/2000/svg" p-id="8503" xmlns:xlink="http://www.w3.org/1999/xlink" width="32" height="32"><defs><style type="text/css"></style></defs><path d="M738.986667 384C716.8 312.32 648.533333 273.066667 595.626667 273.066667c-42.666667 0-76.8 22.186667-95.573334 64.853333l-5.12 8.533333c-8.533333 18.773333-18.773333 39.253333-30.72 56.32-29.013333 37.546667-66.56 51.2-100.693333 63.146667-10.24 3.413333-20.48 6.826667-30.72 11.946667-49.493333 22.186667-69.973333 92.16-54.613333 141.653333C303.786667 699.733333 377.173333 750.933333 469.333333 750.933333c39.253333 0 78.506667-8.533333 117.76-27.306666 63.146667-27.306667 117.76-92.16 143.36-168.96 18.773333-59.733333 30.72-100.693333 8.533334-170.666667zM477.866667 699.733333l34.133333-153.6h-85.333333l119.466666-153.6-34.133333 153.6h85.333333l-119.466666 153.6z" fill="#3399FF" p-id="8504"></path><path d="M750.933333 0H273.066667C122.88 0 0 122.88 0 273.066667v477.866666c0 150.186667 122.88 273.066667 273.066667 273.066667h477.866666c150.186667 0 273.066667-122.88 273.066667-273.066667V273.066667c0-150.186667-122.88-273.066667-273.066667-273.066667z m10.24 566.613333c-27.306667 83.626667-87.04 157.013333-162.133333 189.44-42.666667 18.773333-87.04 29.013333-129.706667 29.013334-102.4 0-192.853333-58.026667-223.573333-158.72-20.48-66.56 6.826667-155.306667 73.386667-184.32 42.666667-17.066667 87.04-23.893333 117.76-63.146667 11.946667-17.066667 22.186667-39.253333 32.426666-58.026667 27.306667-58.026667 75.093333-83.626667 126.293334-83.626666 73.386667 0 150.186667 51.2 175.786666 134.826666 25.6 81.92 11.946667 131.413333-10.24 194.56z" fill="#3399FF" p-id="8505"></path></svg>