<?xml version="1.0" standalone="no"?><!DOCTYPE svg PUBLIC "-//W3C//DTD SVG 1.1//EN" "http://www.w3.org/Graphics/SVG/1.1/DTD/svg11.dtd"><svg t="1518402375395" class="icon" style="" viewBox="0 0 1024 1024" version="1.1" xmlns="http://www.w3.org/2000/svg" p-id="5531" xmlns:xlink="http://www.w3.org/1999/xlink" width="32" height="32"><defs><style type="text/css"></style></defs><path d="M945.162 220.933c36.423 21.028 48.922 67.639 27.894 104.095l-71.905 124.508c-21.028 36.454-67.641 48.922-104.095 27.894l-11.459-6.61-19.369 450.207h-491.51l-19.564-453.852-17.772 10.255c-36.423 21.028-83.036 8.561-104.095-27.894l-71.875-124.508c-21.028-36.454-8.561-83.067 27.894-104.095l190.454-109.988 0.455 0.783c0 119.721 106.112 216.755 237.001 216.755 130.918 0 237.001-97.034 237.001-216.755l0.455-0.783 190.49 109.988zM589.676 625.567l72.458-70.601-100.127-14.551-44.79-90.752-44.759 90.752-100.157 14.551 72.458 70.601-17.085 99.732 89.543-47.068 89.58 47.068-17.121-99.732z" fill="#5FCEFF" p-id="5532"></path><path d="M754.678 110.945l-0.457 0.783c0 119.721-106.081 216.755-237.001 216.755-130.889 0-237.001-97.034-237.001-216.755l-0.455-0.783 22.523-12.989c10.919-6.409 24.049-10.195 38.063-10.195 6.186 0 12.199 0.738 17.957 2.129 0.555 87.031 71.513 157.339 158.912 157.339 87.495 0 158.551-70.471 159.462-157.773l1.239 0.031c4.871-1.113 10.464-1.751 16.207-1.751 14.003 0 27.121 3.793 38.381 10.407l22.166 12.801z" fill="#8B87C1" p-id="5533"></path><path d="M662.134 554.967l-72.458 70.601 17.121 99.732-89.574-47.068-89.549 47.068 17.091-99.732-72.458-70.601 100.157-14.551 44.759-90.752 44.785 90.752z" fill="#FF4893" p-id="5534"></path><path d="M766.228 942.787h-491.51c-11.689 0-21.225-9.215-21.738-20.777l-18.075-419.308c-44.268 17.311-95.949 0.143-120.453-42.281l-71.885-124.513c-26.998-46.817-10.906-106.844 35.871-133.827l212.982-122.977c14.023-8.245 30.889-13.115 48.892-13.115 7.83 0 15.444 0.921 22.741 2.661-0.014-0.001 0.615 0.153 1.266 0.311 11.638 2.929 18.867 14.761 15.959 26.409-2.903 11.643-14.531 18.775-26.189 15.892l-0.379-0.097c-0.323-0.061-0.567-0.123-0.886-0.201-3.747-0.922-8.049-1.451-12.474-1.451-10.018 0-19.403 2.71-27.462 7.437l-212.7 122.823c-25.994 14.996-34.929 48.364-19.927 74.378l71.869 124.498c15.017 25.994 48.374 34.934 74.368 19.932l17.777-10.255c3.118-1.827 6.865-2.905 10.865-2.905 11.687 0 21.223 9.21 21.748 20.768l18.669 433.076h449.823l18.473-429.379c0.349-7.911 4.874-14.69 11.411-18.22 2.878-1.605 6.489-2.601 10.333-2.601 4.002 0 7.751 1.078 10.975 2.96l11.35 6.554c26.015 15.022 59.382 6.077 74.368-19.917l71.91-124.518c15.002-25.999 6.062-59.361-19.932-74.368l-213.002-122.972c-7.794-4.588-17.17-7.298-27.179-7.298-4.097 0-8.087 0.454-11.926 1.315-1.025 0.247-2.618 0.427-4.254 0.427-12.018 0-21.761-9.743-21.761-21.761 0-10.383 7.271-19.068 17.001-21.239 6.402-1.454 13.588-2.272 20.965-2.272 18.015 0 34.891 4.878 49.379 13.385l212.538 122.718c46.766 26.998 62.853 87.025 35.866 133.811l-71.91 124.518c-23.306 40.402-71.265 57.897-114.084 44.524l-17.93 417.024c-0.51 11.609-10.046 20.828-21.735 20.828-0.002 0-0.003 0-0.005 0z" fill="#4F46A3" p-id="5535"></path><path d="M517.222 268.995c-98.58 0-179.789-80.077-181.187-178.586-0.027-0.701-0.042-1.524-0.042-2.35 0-0.112 0-0.223 0.001-0.335 0 0.017 0 0.017 0 0.017 0-12.018 9.742-21.76 21.76-21.76 12.018 0 21.76 9.742 21.76 21.76 0 0 0 0 0 0l0.005 0.947 0.031 0.839c0.922 74.967 62.679 135.951 137.671 135.951 75.151 0 136.924-61.117 137.708-136.238l0.031-0.951v-0.543c0 0 0 0 0 0 0-12.018 9.742-21.76 21.76-21.76 12.018 0 21.76 9.742 21.76 21.76 0 0 0 0 0 0 0 0.783-0.005 1.567-0.036 2.319-1.229 98.693-82.447 178.929-181.222 178.929z" fill="#4F46A3" p-id="5536"></path><path d="M517.222 350.239c-142.679 0-258.759-106.998-258.759-238.515 0 0 0 0 0 0 0-12.018 9.742-21.76 21.76-21.76 12.018 0 21.76 9.742 21.76 21.76 0 0 0 0 0 0 0 107.52 96.553 194.995 215.239 194.995s215.241-87.475 215.241-194.995c0 0 0 0 0 0 0-12.018 9.742-21.76 21.76-21.76 12.018 0 21.76 9.742 21.76 21.76 0 0 0 0 0 0 0 131.517-116.081 238.515-258.761 238.515zM606.802 747.059c-0.001 0-0.003 0-0.004 0-3.7 0-7.184-0.923-10.235-2.551l-79.345-41.691-79.421 41.743c-2.935 1.573-6.42 2.497-10.122 2.497-12.018 0-21.76-9.742-21.76-21.76 0-1.296 0.113-2.566 0.331-3.801l15.136-88.327-64.261-62.618c-4.051-3.957-6.563-9.475-6.563-15.579 0-10.912 8.029-19.949 18.501-21.526l88.957-12.922 39.695-80.486c3.632-7.246 11.002-12.134 19.513-12.134h0.004c8.284 0 15.846 4.7 19.517 12.129l39.726 80.492 88.806 12.908c10.601 1.577 18.639 10.615 18.639 21.531 0 6.111-2.519 11.633-6.576 15.585l-64.266 62.617 15.186 88.453c0.201 1.108 0.315 2.384 0.315 3.686 0 12.015-9.74 21.755-21.755 21.755-0.006 0-0.012 0-0.019 0zM517.222 656.476c3.476 0 6.948 0.829 10.122 2.493l50.555 26.563-9.667-56.284c-0.199-1.107-0.314-2.38-0.314-3.681 0-6.109 2.517-11.629 6.571-15.582l40.873-39.828-56.479-8.207c-7.539-1.124-13.733-5.98-16.716-12.596l-24.935-50.508-25.252 51.195c-3.302 6.593-9.678 11.219-17.196 12.013l-55.702 8.108 40.868 39.818c4.058 3.957 6.574 9.478 6.574 15.587 0 1.298-0.114 2.57-0.332 3.805l-9.627 56.158 50.529-26.557c2.937-1.574 6.425-2.498 10.129-2.499z" fill="#4F46A3" p-id="5537"></path></svg>