<?xml version="1.0" standalone="no"?><!DOCTYPE svg PUBLIC "-//W3C//DTD SVG 1.1//EN" "http://www.w3.org/Graphics/SVG/1.1/DTD/svg11.dtd"><svg t="1518402218403" class="icon" style="" viewBox="0 0 1024 1024" version="1.1" xmlns="http://www.w3.org/2000/svg" p-id="2749" xmlns:xlink="http://www.w3.org/1999/xlink" width="32" height="32"><defs><style type="text/css"></style></defs><path d="M978.744641 344.718854l-60.485405 356.838312h-128.835191v-356.838312z" fill="#FFB578" p-id="2750"></path><path d="M789.424045 772.30463c45.587837 0 82.576004 36.956199 82.576005 82.544035 0 45.619806-36.988168 82.576004-82.576005 82.576005-45.619806 0-82.576004-36.956199-82.576004-82.576005 0-45.587837 36.956199-82.544035 82.576004-82.544035z" fill="#8B87C1" p-id="2751"></path><path d="M698.600031 344.718854h90.824014v356.838312h-90.824014z" fill="#5FCEFF" p-id="2752"></path><path d="M607.776017 344.718854h90.824014v356.838312h-90.824014z" fill="#FF4893" p-id="2753"></path><path d="M607.776017 344.718854v356.838312h-300.381006l-63.93806-356.838312z" fill="#FFB578" p-id="2754"></path><path d="M453.493478 772.30463c45.587837 0 82.544035 36.956199 82.544036 82.544035 0 45.619806-36.956199 82.576004-82.544036 82.576005-45.619806 0-82.576004-36.956199-82.576004-82.576005 0-45.587837 36.956199-82.544035 82.576004-82.544035z" fill="#8B87C1" p-id="2755"></path><path d="M453.493478 959.802991c-57.873535 0-104.954325-47.083987-104.954325-104.954326 0-57.854354 47.083987-104.91916 104.954325-104.919159 57.854354 0 104.91916 47.068003 104.91916 104.919159 0.003197 57.870338-47.064806 104.954325-104.91916 104.954326z m0-165.12004c-33.193444 0-60.197683 26.988255-60.197683 60.162517 0 33.193444 27.00424 60.197683 60.197683 60.197684 33.174262 0 60.162518-27.00424 60.162518-60.197684 0.003197-33.174262-26.988255-60.162518-60.162518-60.162517zM789.427242 959.802991c-57.873535 0-104.954325-47.083987-104.954325-104.954326 0-57.854354 47.083987-104.91916 104.954325-104.919159s104.954325 47.068003 104.954326 104.919159c0 57.870338-47.083987 104.954325-104.954326 104.954326z m0-165.12004c-33.193444 0-60.197683 26.988255-60.197683 60.162517 0 33.193444 27.00424 60.197683 60.197683 60.197684s60.197683-27.00424 60.197684-60.197684c0-33.174262-27.007437-60.162518-60.197684-60.162517zM918.259236 723.935487H307.395011a22.378321 22.378321 0 0 1-22.026662-18.433342l-63.93806-356.84151a22.378321 22.378321 0 0 1 22.026662-26.326496h735.28769a22.371927 22.371927 0 0 1 22.065025 26.118697l-60.485405 356.84151a22.378321 22.378321 0 0 1-22.065025 18.641141z m-592.136767-44.756642h573.236677l52.899154-312.084867H270.202242l55.920227 312.084867z" fill="#4F46A3" p-id="2756"></path><path d="M259.415891 457.732572a22.381518 22.381518 0 0 1-21.940345-18.110456l-67.134963-345.105679a22.378321 22.378321 0 0 1 17.691661-26.24018 22.365533 22.365533 0 0 1 26.24018 17.691662l67.134963 345.105678a22.378321 22.378321 0 0 1-21.991496 26.658975z" fill="#4F46A3" p-id="2757"></path><path d="M192.306503 112.623696h-151.117605a22.378321 22.378321 0 1 1 0-44.756642h151.117605a22.378321 22.378321 0 1 1 0 44.756642zM607.776017 723.935487a22.378321 22.378321 0 0 1-22.378321-22.378321v-356.838312a22.378321 22.378321 0 1 1 44.756642 0V701.560363a22.378321 22.378321 0 0 1-22.378321 22.375124zM698.600031 723.935487a22.378321 22.378321 0 0 1-22.378321-22.378321v-356.838312a22.378321 22.378321 0 1 1 44.756642 0V701.560363a22.378321 22.378321 0 0 1-22.378321 22.375124zM789.427242 723.935487a22.378321 22.378321 0 0 1-22.378321-22.378321v-356.838312a22.378321 22.378321 0 1 1 44.756642 0V701.560363a22.378321 22.378321 0 0 1-22.378321 22.375124z" fill="#4F46A3" p-id="2758"></path><path d="M370.194974 356.26287a22.378321 22.378321 0 0 1-19.395611-33.509937l103.419812-180.465174a22.36873 22.36873 0 0 1 30.11163-8.529337l330.943398 180.113515a22.378321 22.378321 0 0 1-21.396872 39.312316l-311.71083-169.646855-92.534357 161.472374a22.378321 22.378321 0 0 1-19.43717 11.253098z" fill="#4F46A3" p-id="2759"></path><path d="M354.299972 535.928819a22.381518 22.381518 0 0 1-22.065025-18.820168l-15.984515-99.167931a22.378321 22.378321 0 0 1 18.532447-25.65195 22.371927 22.371927 0 0 1 25.65195 18.532447l15.984515 99.167931a22.378321 22.378321 0 0 1-22.119372 25.939671z" fill="#FFFFFF" p-id="2760"></path></svg>