<?xml version="1.0" standalone="no"?><!DOCTYPE svg PUBLIC "-//W3C//DTD SVG 1.1//EN" "http://www.w3.org/Graphics/SVG/1.1/DTD/svg11.dtd"><svg t="1518402480066" class="icon" style="" viewBox="0 0 1024 1024" version="1.1" xmlns="http://www.w3.org/2000/svg" p-id="8053" xmlns:xlink="http://www.w3.org/1999/xlink" width="32" height="32"><defs><style type="text/css"></style></defs><path d="M750.778182 913.687273H273.687273a23.272727 23.272727 0 0 1-23.272728-23.272728V134.050909a23.272727 23.272727 0 0 1 23.272728-23.272727h477.090909a23.272727 23.272727 0 0 1 23.272727 23.272727v756.363636a23.272727 23.272727 0 0 1-23.272727 23.272728z m-453.818182-46.545455h430.545455V157.323636H296.96z" fill="#1B37A8" p-id="8054"></path><path d="M350.021818 674.909091h325.818182v46.545454h-325.818182zM512 841.076364a46.545455 46.545455 0 1 1 46.545455-46.545455 46.545455 46.545455 0 0 1-46.545455 46.545455z m0-46.545455z" fill="#1B37A8" p-id="8055"></path><path d="M506.88 407.272727a23.272727 23.272727 0 0 1-20.014545-11.636363L401.687273 251.810909l40.494545-23.738182 65.163637 110.312728 65.163636-110.312728 40.029091 23.738182-85.643637 143.825455a23.272727 23.272727 0 0 1-20.014545 11.636363z" fill="#FFB718" p-id="8056"></path><path d="M396.101818 360.261818h231.796364v46.545455H396.101818zM396.101818 453.352727h231.796364v46.545455H396.101818z" fill="#FFB718" p-id="8057"></path><path d="M483.607273 383.534545h46.545454v231.796364h-46.545454z" fill="#FFB718" p-id="8058"></path></svg>