<?xml version="1.0" standalone="no"?><!DOCTYPE svg PUBLIC "-//W3C//DTD SVG 1.1//EN" "http://www.w3.org/Graphics/SVG/1.1/DTD/svg11.dtd"><svg t="1518402569097" class="icon" style="" viewBox="0 0 1024 1024" version="1.1" xmlns="http://www.w3.org/2000/svg" p-id="10137" xmlns:xlink="http://www.w3.org/1999/xlink" width="32" height="32"><defs><style type="text/css"></style></defs><path d="M0 161.792h215.04C215.552 199.68 246.272 230.4 284.672 230.4S353.28 199.68 353.792 161.792h648.192v30.72c-15.872 0-28.672 13.312-29.184 29.696 0 16.384 13.312 29.696 29.184 29.696V281.6c-15.872 0-28.672 13.312-29.184 29.696 0 16.384 13.312 29.696 29.184 29.696v29.696c-15.872 0-28.672 13.312-29.184 29.696 0 16.384 13.312 29.696 29.184 29.696v29.696c-15.872 0-28.672 13.312-29.184 29.696 0 16.384 13.312 29.696 29.184 29.696v29.696c-15.872 0-28.672 13.312-29.184 29.696 0 16.384 13.312 29.696 29.184 29.696V637.44c-15.872 0-28.672 13.312-29.184 29.696 0 16.384 13.312 29.696 29.184 29.696v29.696c-23.04 0-29.184 20.48-29.184 29.696 0 16.384 12.8 29.696 29.184 29.696v36.352H353.792c-0.512-37.888-31.232-68.608-69.632-68.608s-69.12 30.72-69.632 68.608H0v-36.352c15.36-0.512 28.16-13.824 28.16-29.696 0-9.216-7.168-29.696-28.16-29.696v-29.696c15.36-0.512 28.16-13.312 28.16-29.696 0-15.872-12.8-28.672-28.16-29.696v-29.696c15.36-0.512 28.16-13.312 28.16-29.696 0-15.872-12.8-28.672-28.16-29.696V517.12c15.36-0.512 28.16-13.312 28.16-29.696 0-15.872-12.8-28.672-28.16-29.696v-29.696c15.36-0.512 28.16-13.312 28.16-29.696C28.16 382.464 15.36 369.664 0 368.64v-29.696c15.36-0.512 28.16-13.312 28.16-29.696C28.16 294.4 15.36 281.6 0 281.088v-29.696c15.36-0.512 28.16-13.312 28.16-29.696 0-15.872-12.8-28.672-28.16-29.696v-30.208z" fill="#FFEDCC" p-id="10138"></path><path d="M1016.32 851.968H368.128c-4.096 0-7.68-3.584-7.68-7.68-0.512-33.792-28.16-60.928-61.952-60.928s-61.44 27.136-61.952 60.928c0 4.096-3.584 7.68-7.68 7.68h-215.04c-4.096 0-7.68-3.584-7.68-7.68v-36.352c0-4.096 3.072-7.68 7.168-7.68 11.776-0.512 20.992-10.24 20.992-22.016 0-4.608-3.584-22.016-20.48-22.016-4.096 0-7.68-3.584-7.68-7.68v-29.696c0-4.096 3.072-7.68 7.168-7.68 11.264-0.512 20.48-10.24 20.992-22.016 0-11.776-9.216-21.504-20.992-22.016-4.096 0-7.168-3.584-7.168-7.68V629.76c0-4.096 3.072-7.68 7.168-7.68 11.264-0.512 20.48-10.24 20.992-22.016 0-11.776-9.216-21.504-20.992-22.016-4.096 0-7.168-3.584-7.168-7.68v-29.696c0-4.096 3.072-7.68 7.168-7.68 11.264-0.512 20.48-10.24 20.992-22.016 0-11.776-9.216-21.504-20.992-22.016-4.096 0-7.168-3.584-7.168-7.68v-29.696c0-4.096 3.072-7.68 7.168-7.68 11.264-0.512 20.48-10.24 20.992-22.016 0-11.776-9.216-21.504-20.992-22.016-4.096 0-7.168-3.584-7.168-7.68v-29.696c0-4.096 3.072-7.68 7.168-7.68 11.264-0.512 20.48-10.24 20.992-22.016 0-11.776-9.216-21.504-20.992-22.016-4.096 0-7.168-3.584-7.168-7.68v-29.696c0-4.096 3.072-7.68 7.168-7.68 11.264-0.512 20.48-10.24 20.992-22.016 0-11.776-9.216-21.504-20.992-22.016-4.096 0-7.168-3.584-7.168-7.68v-30.72c0-4.096 3.584-7.68 7.68-7.68h215.04c4.096 0 7.68 3.584 7.68 7.68 0.512 33.792 28.16 60.928 61.952 60.928s61.44-27.136 61.952-60.928c0-4.096 3.584-7.68 7.68-7.68h648.192c4.096 0 7.68 3.584 7.68 7.68v30.72c0 4.096-3.584 7.68-7.68 7.68-11.776 0-21.504 9.728-21.504 22.016 0 11.776 9.728 22.016 21.504 22.016 4.096 0 7.68 3.584 7.68 7.68v29.696c0 4.096-3.584 7.68-7.68 7.68-11.776 0-21.504 9.728-21.504 22.016 0 11.776 9.728 22.016 21.504 22.016 4.096 0 7.68 3.584 7.68 7.68v29.696c0 4.096-3.584 7.68-7.68 7.68-11.776 0-21.504 9.728-21.504 22.016 0 11.776 9.728 22.016 21.504 22.016 4.096 0 7.68 3.584 7.68 7.68V481.28c0 4.096-3.584 7.68-7.68 7.68-11.776 0-21.504 9.728-21.504 22.016 0 11.776 9.728 22.016 21.504 22.016 4.096 0 7.68 3.584 7.68 7.68v29.696c0 4.096-3.584 7.68-7.68 7.68-11.776 0-21.504 9.728-21.504 22.016 0 11.776 9.728 22.016 21.504 22.016 4.096 0 7.68 3.584 7.68 7.68v29.696c0 4.096-3.584 7.68-7.68 7.68-11.776 0-21.504 9.728-21.504 22.016 0 11.776 9.728 22.016 21.504 22.016 4.096 0 7.68 3.584 7.68 7.68v29.696c0 4.096-3.584 7.68-7.68 7.68-21.504 0-21.504 22.016-21.504 22.528 0 12.288 9.728 22.528 21.504 22.528 4.096 0 7.68 3.584 7.68 7.68v36.352c0 3.584-3.584 6.656-7.68 6.656z m-641.024-14.848H1008.64v-22.016c-16.384-3.584-29.184-18.432-29.184-36.864 0-12.8 8.192-32.768 29.184-36.864v-15.872c-16.384-3.584-28.672-18.432-29.184-36.352 0-17.92 12.8-32.768 29.184-36.352v-15.872c-16.384-3.584-28.672-18.432-29.184-36.352 0-17.92 12.8-32.768 29.184-36.352v-15.872c-16.384-3.584-28.672-18.432-29.184-36.352 0-17.92 12.8-32.768 29.184-36.352v-15.872c-16.384-3.584-28.672-18.432-29.184-36.352 0-17.92 12.8-32.768 29.184-36.352v-15.872c-16.384-3.584-28.672-18.432-29.184-36.352 0-17.92 12.8-32.768 29.184-36.352v-15.872c-16.384-3.584-28.672-18.432-29.184-36.352 0-17.92 12.8-32.768 29.184-36.352v-15.872H375.296c-4.096 38.4-37.376 68.608-76.288 68.608-39.424 0-72.192-30.208-76.288-68.608H22.016V209.92c15.872 4.096 27.648 18.432 28.16 35.84 0 17.408-11.776 32.256-28.16 36.352v16.384c15.872 4.096 27.648 18.432 28.16 35.84 0 17.408-11.776 32.256-28.16 36.352v16.384c15.872 4.096 27.648 18.432 28.16 35.84 0 17.408-11.776 32.256-28.16 36.352v16.384c15.872 4.096 27.648 18.432 28.16 35.84 0 17.408-11.776 32.256-28.16 36.352v16.384c15.872 4.096 27.648 18.432 28.16 35.84 0 17.408-11.776 32.256-28.16 36.352v16.384c15.872 4.096 27.648 18.432 28.16 35.84 0 17.408-11.776 32.256-28.16 36.352v16.384c18.944 4.096 28.16 23.04 28.16 36.352 0 17.92-11.776 32.256-28.16 36.352v22.528h200.192c4.096-38.4 37.376-68.608 76.288-68.608 39.424 0.512 72.192 30.208 76.8 69.12z" fill="#FF6000" p-id="10139"></path><path d="M485.376 389.12h144.896c8.704-24.576 14.848-51.2 19.456-80.384l24.576 2.56c-4.608 27.648-10.752 53.248-18.944 77.824h168.96v22.016h-177.152c-8.704 20.992-17.92 39.936-28.672 56.832h230.4v22.528H742.4c23.552 34.304 63.488 65.536 119.808 92.672l-15.872 19.456c-61.952-33.792-104.96-71.168-129.024-112.128h-114.688c-35.84 48.128-82.944 86.016-142.336 113.664l-13.824-20.992c52.224-22.528 94.208-53.76 126.464-92.672h-112.64v-22.528h129.536c12.8-18.944 23.04-37.888 31.232-56.832H485.376V389.12z m53.248 193.024v-23.04h235.008c-1.536 41.984-4.096 75.264-7.168 98.816-3.584 24.064-9.728 41.472-18.432 51.712-9.216 9.216-23.04 14.336-41.472 15.36h-64l-6.144-23.552c20.48 1.024 39.936 1.536 58.368 1.536 20.992 0 34.816-7.68 41.472-22.016 7.168-15.36 11.776-48.128 13.824-98.816h-118.784c-9.216 35.328-22.016 62.976-38.4 83.968-19.968 23.04-49.152 43.52-87.552 61.952l-15.36-19.456c35.84-15.872 62.976-33.792 81.408-52.736 16.896-18.944 29.184-43.52 37.376-73.728h-70.144z m7.68-268.8c12.288 18.432 23.552 38.912 34.304 61.952l-20.48 9.216c-11.264-24.576-23.04-45.568-35.328-63.488l21.504-7.68z m243.2 4.096c-10.752 26.112-23.552 48.64-39.424 67.072l-18.432-10.24c14.336-18.432 26.624-39.936 36.352-64.512l21.504 7.68zM298.496 721.408c-4.096 0-7.68-3.584-7.68-7.68V316.416c0-4.096 3.584-7.68 7.68-7.68s7.68 3.584 7.68 7.68v397.312c0 4.096-3.584 7.68-7.68 7.68z" fill="#FF6000" p-id="10140"></path></svg>