<?xml version="1.0" standalone="no"?><!DOCTYPE svg PUBLIC "-//W3C//DTD SVG 1.1//EN" "http://www.w3.org/Graphics/SVG/1.1/DTD/svg11.dtd"><svg t="1518402419664" class="icon" style="" viewBox="0 0 1024 1024" version="1.1" xmlns="http://www.w3.org/2000/svg" p-id="6220" xmlns:xlink="http://www.w3.org/1999/xlink" width="32" height="32"><defs><style type="text/css"></style></defs><path d="M959.608 453.849c-81.77-117.272-225.617-150.164-312.113-156.647-23.832-27.294-133.932-113.005-133.932-113.005-19.434-15.035-32.334-20.024-40.919-20.024-17.151 0-17.037 20.024-17.037 20.024v140.857c-156.664 83.462-156.664 127.729-191.871 150.609-5.269 3.414-10.57 4.989-15.987 4.989-30.709 0-64.602-50.225-113.546-93.408-26.08-22.995-44.956-32.186-57.479-32.186-15.117 0-21.01 13.394-19.252 32.186 2.445 26.016 27.672 82.919 39.851 109.263 2.265 7.091 3.611 19.006-3.513 35.157-12.966 28.444-34.172 77.962-36.338 101.663-1.74 18.777 4.169 32.17 19.302 32.17 12.507 0 31.382-9.191 57.446-32.17 48.945-43.216 82.838-93.457 113.547-93.457 5.417 0 10.702 1.576 15.986 5.022 35.207 22.896 35.207 67.131 191.871 150.609v140.792s-0.131 20.04 17.037 20.04c8.568 0 21.468-5.022 40.902-20.04 0 0 110.115-85.678 133.949-112.939 86.479-6.565 230.341-39.392 312.096-156.665 10.538-15.116 20.5-37.389 20.5-56.411v-0.067c-0.049-18.972-9.962-41.311-20.5-56.362zM815.631 571.022c-32.825 0-59.447-27.245-59.447-60.778 0-33.63 26.622-60.81 59.447-60.81 32.795 0 59.416 27.18 59.416 60.81 0 33.533-26.621 60.778-59.416 60.778z" fill="#FF5000" p-id="6221"></path><path d="M959.608 453.849c-81.77-117.272-225.617-150.164-312.113-156.647-23.832-27.294-133.932-113.005-133.932-113.005-19.434-15.035-32.334-20.024-40.919-20.024-17.151 0-17.037 20.024-17.037 20.024v140.857c-156.664 83.462-156.664 127.729-191.871 150.592-5.269 3.446-10.57 5.006-15.987 5.006-30.709 0-64.602-50.225-113.546-93.408-26.08-22.995-44.956-32.186-57.479-32.186-15.117 0-21.01 13.394-19.252 32.186 2.445 26.016 27.656 82.919 39.834 109.247 2.281 7.123 3.627 19.008-3.497 35.191-12.966 28.427-34.172 77.944-36.338 101.646-1.74 18.777 4.169 32.17 19.302 32.17 12.507 0 31.382-9.191 57.446-32.17 48.945-43.216 82.838-93.457 113.547-93.457 5.417 0 10.702 1.576 15.986 5.022 35.207 22.896 35.207 67.131 191.871 150.609v140.792s-0.131 20.04 17.037 20.04c8.568 0 21.468-5.022 40.902-20.04 0 0 110.115-85.678 133.949-112.939 86.479-6.565 230.341-39.392 312.096-156.665 10.538-15.116 20.5-37.389 20.5-56.396v-0.131c-0.048-18.924-9.961-41.263-20.499-56.314z" fill="#FF5000" p-id="6222"></path><path d="M472.661 874.333c-9.447 0-17.752-3.333-24.018-9.64-10.518-10.587-11.031-25.408-11.02-28.453V706.25C332.536 649.015 299.47 609.669 277.38 583.379c-8.77-10.437-15.106-17.978-23.441-23.397-2.872-1.873-4.806-2.111-6.172-2.111-13.114 0-35.579 23.197-57.303 45.631-13.084 13.511-27.914 28.824-44.33 43.319-27.998 24.683-50.682 36.677-69.36 36.677-10.73 0-19.974-3.918-26.731-11.33-8.46-9.281-12.089-23.286-10.494-40.501 2.299-25.155 21.83-72.243 37.831-107.354 4.432-10.092 4.201-17.119 3.056-21.441-17.424-37.781-38.423-87.753-40.884-113.942-1.613-17.239 2.005-31.255 10.462-40.541 6.75-7.412 15.987-11.329 26.71-11.329 18.691 0 41.386 12 69.383 36.685 16.428 14.495 31.264 29.807 44.354 43.316 21.718 22.415 44.175 45.593 57.288 45.593 1.38 0 3.333-0.238 6.199-2.095 8.314-5.403 14.651-12.946 23.422-23.386 22.092-26.294 55.159-65.647 160.237-122.867V184.213c-0.006-3.087 0.54-17.857 11.033-28.411 6.264-6.299 14.564-9.629 24.004-9.629 14.454 0 30.956 7.559 51.933 23.787 4.323 3.366 99.531 77.576 131.3 109.866 39.823 3.505 97.21 12.946 156.356 37.532 69.282 28.8 123.834 71.259 162.14 126.195 11.423 16.313 23.672 42.401 23.735 66.61v0.114c0 24.081-12.26 50.248-23.734 66.706-38.291 54.926-92.841 97.378-162.135 126.176-59.073 24.55-116.487 34.021-156.345 37.564-31.763 32.254-126.994 106.443-131.278 109.776-21.056 16.272-37.551 23.834-51.955 23.834z m0.963-38.171c0.026 0.611 0.149 1.378 0.313 2.051 3.209-0.519 11.808-3.172 28.619-16.163 30.204-23.501 112.789-89.251 131.405-110.544l4.847-5.543 7.342-0.558c61.847-4.694 214.759-28.612 298.693-149.01 8.594-12.328 17.266-31.369 17.266-46.118-0.039-14.896-8.689-33.885-17.245-46.105-84.09-120.598-236.911-144.389-298.714-149.021l-7.359-0.552-4.854-5.559c-18.612-21.316-101.186-87.094-131.431-110.641-16.743-12.953-25.363-15.593-28.583-16.107a11.601 11.601 0 0 0-0.31 1.94l0.011 0.245-0.012-0.214-0.004 0.077v151.52l-9.537 5.081C357.573 397.676 325.895 435.38 304.933 460.33c-9.958 11.852-18.558 22.088-31.389 30.426-8.093 5.244-16.765 7.896-25.795 7.896-28.359 0-52.535-24.952-83.143-56.542-13.247-13.672-26.944-27.81-42.312-41.368-29.884-26.349-43.204-27.684-45.57-27.684-0.128 0-0.241 0.003-0.338 0.008-0.654 1.399-1.663 5.329-0.992 12.501 1.522 16.198 15.828 54.849 38.268 103.386l0.469 1.014 0.34 1.064c3.245 10.16 5.151 26.717-4.191 47.898l-0.091 0.201c-20.388 44.727-33.395 80.553-34.791 95.835-0.668 7.209 0.354 11.138 1.01 12.522 0.104 0.006 0.226 0.01 0.366 0.01 2.364 0 15.667-1.334 45.542-27.672 15.351-13.555 29.044-27.694 42.287-41.368 30.616-31.615 54.798-56.587 83.164-56.587 9.047 0 17.733 2.673 25.817 7.943 12.807 8.329 21.404 18.56 31.358 30.406 20.96 24.945 52.636 62.642 159.146 119.396l9.536 5.081v151.466z m342.007-247.141c-42.704 0-77.447-35.34-77.447-78.777 0-43.456 34.743-78.81 77.447-78.81 42.688 0 77.416 35.354 77.416 78.81 0 43.438-34.729 78.777-77.416 78.777z m0-121.587c-22.854 0-41.447 19.205-41.447 42.81 0 23.588 18.593 42.777 41.447 42.777 22.837 0 41.416-19.189 41.416-42.777 0-23.605-18.579-42.81-41.416-42.81z" fill="" p-id="6223"></path><path d="M472.66 874.334c-9.447 0-17.752-3.333-24.018-9.64-10.518-10.587-11.031-25.408-11.02-28.453v-129.99C332.535 649.015 299.47 609.669 277.379 583.38c-8.77-10.437-15.106-17.978-23.441-23.397-2.872-1.873-4.806-2.111-6.172-2.111-13.114 0-35.579 23.197-57.303 45.63-13.084 13.512-27.915 28.825-44.331 43.32-27.997 24.683-50.681 36.677-69.359 36.677-10.73 0-19.974-3.918-26.731-11.33-8.46-9.281-12.089-23.286-10.494-40.501 2.301-25.181 21.827-72.24 37.827-107.329 4.433-10.115 4.197-17.151 3.047-21.475-17.414-37.741-38.403-87.681-40.871-113.935-1.613-17.239 2.005-31.255 10.462-40.541 6.75-7.412 15.987-11.329 26.71-11.329 18.691 0 41.386 12 69.383 36.685 16.428 14.495 31.264 29.807 44.354 43.316 21.718 22.415 44.175 45.593 57.288 45.593 1.382 0 3.329-0.235 6.135-2.07 8.384-5.444 14.723-12.987 23.496-23.427 22.094-26.291 55.163-65.638 160.228-122.851V184.213c-0.006-3.087 0.54-17.857 11.033-28.411 6.264-6.299 14.564-9.629 24.004-9.629 14.454 0 30.956 7.559 51.933 23.787 4.323 3.366 99.532 77.576 131.3 109.866 39.823 3.505 97.21 12.946 156.356 37.532 69.282 28.8 123.834 71.259 162.14 126.195 11.423 16.314 23.672 42.39 23.734 66.563v0.177c0 24.068-12.26 50.23-23.733 66.689-38.292 54.927-92.842 97.378-162.136 126.176-59.073 24.551-116.487 34.022-156.345 37.565C624.13 772.978 528.899 847.167 524.615 850.5c-21.056 16.272-37.551 23.834-51.955 23.834z m0.963-38.171c0.026 0.611 0.149 1.378 0.313 2.051 3.209-0.519 11.808-3.172 28.619-16.163C532.759 798.55 615.344 732.8 633.96 711.507l4.846-5.543 7.343-0.558c61.847-4.695 214.759-28.612 298.693-149.011 8.594-12.328 17.266-31.364 17.266-46.102v-0.131c-0.038-14.797-8.688-33.771-17.244-45.99-84.09-120.598-236.911-144.389-298.714-149.021l-7.359-0.552-4.854-5.559c-18.612-21.316-101.186-87.094-131.431-110.641-16.743-12.953-25.363-15.593-28.583-16.107a11.495 11.495 0 0 0-0.309 1.94l0.01 0.245-0.012-0.214-0.004 0.077v151.52l-9.537 5.081c-106.485 56.729-138.166 94.429-159.13 119.375-9.961 11.854-18.564 22.091-31.401 30.427-8.009 5.238-16.703 7.91-25.79 7.91-28.359 0-52.535-24.952-83.143-56.542-13.247-13.672-26.944-27.81-42.312-41.368-29.884-26.349-43.204-27.684-45.57-27.684-0.128 0-0.241 0.003-0.338 0.008-0.654 1.399-1.663 5.329-0.992 12.501 1.526 16.245 15.826 54.889 38.249 103.367l0.467 1.009 0.339 1.059c3.253 10.16 5.171 26.723-4.165 47.933l-0.098 0.217c-20.386 44.694-33.391 80.514-34.79 95.814-0.668 7.209 0.354 11.138 1.01 12.522 0.104 0.006 0.227 0.01 0.367 0.01 2.364 0 15.667-1.334 45.542-27.672 15.352-13.555 29.045-27.694 42.287-41.369 30.616-31.614 54.798-56.586 83.164-56.586 9.047 0 17.733 2.673 25.817 7.943 12.807 8.329 21.404 18.56 31.358 30.406 20.96 24.944 52.636 62.642 159.147 119.396l9.535 5.081v151.465z m342.008-247.142c-42.704 0-77.447-35.34-77.447-78.777 0-43.456 34.743-78.81 77.447-78.81 42.688 0 77.416 35.354 77.416 78.81 0 43.438-34.729 78.777-77.416 78.777z m0-121.587c-22.854 0-41.447 19.205-41.447 42.81 0 23.588 18.593 42.777 41.447 42.777 22.837 0 41.416-19.189 41.416-42.777 0-23.605-18.579-42.81-41.416-42.81z" fill="" p-id="6224"></path></svg>